<svg width="55" height="45" viewBox="0 0 55 45" fill="none" xmlns="http://www.w3.org/2000/svg">
<path fill-rule="evenodd" clip-rule="evenodd" d="M22.2104 0.313036C17.6982 1.02551 15.3939 1.81989 13.0409 3.47341C8.11097 6.93809 5.10409 10.9684 2.70641 17.3258C0.416511 23.3971 0.00329982 26.5114 0.00128326 37.7162L0 45L9.69506 44.9634C17.0429 44.9356 19.4998 44.8948 19.8433 44.7946C21.9194 44.1892 23.593 42.4413 24.2601 40.1809C24.3985 39.7124 24.4225 38.3564 24.451 29.4529L24.4834 19.261H18.3446H12.2059L12.3467 18.6268C13.2899 14.3766 16.9772 10.0836 20.8059 8.77835C22.5154 8.19576 23.5604 7.11404 24.1305 5.3366C24.5028 4.17625 24.6475 -0.0186313 24.3146 6.22802e-05C24.2099 0.00584381 23.263 0.14672 22.2104 0.313036ZM54.0905 0.111454C47.382 1.09489 44.6275 2.19242 41.1523 5.26703C35.171 10.5589 31.2299 19.758 30.6203 29.8499C30.5516 30.9871 30.5204 34.2595 30.5395 38.321L30.5707 44.9391L39.6866 44.9682C51.4811 45.006 51.2441 45.041 53.2663 42.9499C54.9996 41.1572 54.9954 41.1913 54.9963 29.1351L54.9971 19.261H48.903C44.0948 19.261 42.8092 19.2331 42.8093 19.1286C42.8101 18.7289 43.3663 16.9135 43.7577 16.033C45.1817 12.8291 48.0903 10.1087 51.6186 8.68044C53.452 7.93829 54.5736 6.48308 54.8894 4.43661C55.0466 3.41771 55.0324 -0.0143913 54.8711 0.00237509C54.8018 0.00950564 54.4506 0.058649 54.0905 0.111454Z" fill="#6ABEA7"/>
</svg>
