<svg id="svg" xmlns="http://www.w3.org/2000/svg" xmlns:xlink="http://www.w3.org/1999/xlink" width="400" height="397.8021978021978" viewBox="0, 0, 400,397.8021978021978"><g id="svgg"><path id="path0" d="M171.154 100.581 C 146.541 104.278,133.971 108.400,121.136 116.980 C 94.244 134.958,77.842 155.871,64.763 188.859 C 52.272 220.363,50.018 236.523,50.007 294.664 L 50.000 332.459 102.885 332.269 C 142.966 332.125,156.368 331.913,158.242 331.393 C 169.567 328.252,178.696 319.182,182.335 307.453 C 183.090 305.022,183.221 297.986,183.376 251.786 L 183.553 198.901 150.067 198.901 L 116.581 198.901 117.349 195.610 C 122.494 173.556,142.608 151.280,163.493 144.507 C 172.818 141.484,178.518 135.871,181.628 126.648 C 183.659 120.627,184.448 98.860,182.632 98.957 C 182.061 98.987,176.896 99.718,171.154 100.581 M345.055 99.535 C 308.461 104.638,293.436 110.333,274.479 126.287 C 241.852 153.746,220.354 201.480,217.029 253.846 C 216.654 259.747,216.484 276.727,216.588 297.802 L 216.758 332.143 266.484 332.294 C 330.821 332.490,329.528 332.672,340.559 321.821 C 350.014 312.519,349.991 312.696,349.996 250.137 L 350.000 198.901 316.758 198.901 C 290.530 198.901,283.517 198.756,283.518 198.214 C 283.522 196.140,286.556 186.720,288.691 182.151 C 296.459 165.526,312.325 151.410,331.571 143.999 C 341.572 140.148,347.690 132.597,349.413 121.978 C 350.270 116.691,350.193 98.882,349.313 98.969 C 348.935 99.006,347.019 99.261,345.055 99.535 " stroke="none" fill="#000000" fill-rule="evenodd"></path></g></svg>