<svg width="56" height="47" viewBox="0 0 56 47" fill="none" xmlns="http://www.w3.org/2000/svg">
<path fill-rule="evenodd" clip-rule="evenodd" d="M32.7895 46.2562C37.3146 45.6314 39.634 44.8819 42.0185 43.2743C47.0148 39.9059 50.0992 35.9347 52.6198 29.625C55.027 23.5992 55.5005 20.4935 55.7199 9.29083L55.8625 2.00847L46.1685 1.85703C38.8216 1.74226 36.3643 1.73545 36.0189 1.82898C33.9314 2.39393 32.2243 4.10909 31.5134 6.3561C31.366 6.82183 31.3156 8.17707 31.1145 17.0784L30.8844 27.2677L37.022 27.3868L43.1596 27.5059L43.0066 28.1372C41.9811 32.3683 38.2112 36.589 34.3579 37.8197C32.6374 38.3691 31.5717 39.4303 30.9672 41.1964C30.5724 42.3493 30.3464 46.5406 30.6796 46.5283C30.7844 46.5246 31.7338 46.4021 32.7895 46.2562ZM0.911442 45.8394C7.6378 44.9863 10.413 43.9424 13.9472 40.9358C20.0301 35.7609 24.1488 26.6399 24.954 16.5618C25.0448 15.4261 25.1394 12.155 25.1992 8.09388L25.2964 1.4764L16.1827 1.27049C4.39116 1.00396 4.62883 0.973488 2.56641 3.02505C0.798644 4.78375 0.803516 4.74973 0.568756 16.8037L0.376505 26.6759L6.4694 26.7941C11.2767 26.8873 12.5616 26.9402 12.5594 27.0446C12.5509 27.4442 11.9596 29.2485 11.5512 30.1213C10.0652 33.297 7.1044 35.9605 3.54911 37.32C1.70164 38.0264 0.552059 39.4596 0.19656 41.4996C0.0197188 42.5152 -0.0327392 45.947 0.128883 45.9333C0.198302 45.9276 0.550439 45.8852 0.911442 45.8394Z" fill="#6ABEA7"/>
</svg>
